<svg xmlns="http://www.w3.org/2000/svg" viewBox="0 0 72.33 50"><defs><style>.cls-1{fill:#fff;}</style></defs><g id="Layer_2" data-name="Layer 2"><g id="Layer_1-2" data-name="Layer 1"><g id="_Group_" data-name=" Group "><path class="cls-1" d="M32.7,15.17V8.55A8.55,8.55,0,0,0,24.15,0H8.55A8.55,8.55,0,0,0,0,8.55H0v6.63A8.52,8.52,0,0,0,5,23v1.23A8.55,8.55,0,0,0,0,32v9.47A8.55,8.55,0,0,0,8.55,50h15.6a8.55,8.55,0,0,0,8.55-8.55h0V32a8.54,8.54,0,0,0-5-7.79V23A8.53,8.53,0,0,0,32.7,15.17ZM9,10.68A3.09,3.09,0,0,1,12,7.59h8.61a3.09,3.09,0,0,1,3.09,3.09v4.15a3.09,3.09,0,0,1-3.09,3.08H12A3.08,3.08,0,0,1,9,14.83H9Zm14.8,28.61a3.09,3.09,0,0,1-3.09,3.08H12A3.08,3.08,0,0,1,9,39.29V33.55A3.08,3.08,0,0,1,12,30.47h8.61a3.09,3.09,0,0,1,3.09,3.08Z"/></g><polygon class="cls-1" points="51.05 48.66 56.75 48.66 56.75 46.8 52.99 46.8 52.99 45.37 56.01 45.37 56.01 43.55 52.99 43.55 52.99 42.11 56.75 42.11 56.75 40.25 51.05 40.25 51.05 48.66"/><polygon class="cls-1" points="62.64 33.24 60.66 33.24 60.66 29.87 58.69 29.87 58.69 38.28 60.66 38.28 60.66 35.1 62.64 35.1 62.64 38.28 64.62 38.28 64.62 29.87 62.64 29.87 62.64 33.24"/><polygon class="cls-1" points="58.73 48.66 64.43 48.66 64.43 46.8 60.66 46.8 60.66 45.37 63.69 45.37 63.69 43.55 60.66 43.55 60.66 42.11 64.43 42.11 64.43 40.25 58.73 40.25 58.73 48.66"/><path class="cls-1" d="M69.85,40.25H66.21v8.42h1.94v-3h1.7A2.44,2.44,0,0,0,72.33,43C72.33,40.64,70.82,40.25,69.85,40.25Zm-.23,3.69H68.15V42h1.47c.47,0,.81.16.81.89s-.27,1-.81,1Z"/><path class="cls-1" d="M53.84,35.06H55c0,1.25-.42,1.55-1.24,1.55s-1.2-.5-1.2-1.55V32.54a1.1,1.1,0,0,1,1.2-1.12,1,1,0,0,1,1.13,1.12h2a2.85,2.85,0,0,0-3.14-2.87c-2.2,0-3.18,1.09-3.18,2.87v2.52c0,1.44.47,3.3,3.18,3.3s3.18-1.59,3.18-3.22V33.51h-3.1Z"/><path class="cls-1" d="M40,43.59c-.93-.16-1.16-.59-1.16-.86,0-.54.39-.81,1.05-.81s.93.46.93.74h1.85a2.6,2.6,0,0,0-2.79-2.6c-2.36,0-3,1.55-3,2.71,0,1.36,1.08,2.21,2.68,2.44.54.08,1.32.24,1.32.94,0,.54-.32.89-1,.89-.47,0-1.05-.08-1.05-1.13H36.86c0,1.05.27,2.87,3,2.87s3-1.89,3-2.68C42.83,44.48,41.75,43.89,40,43.59Z"/><polygon class="cls-1" points="42.68 36.38 38.92 36.38 38.92 34.95 41.94 34.95 41.94 33.13 38.92 33.13 38.92 31.69 42.68 31.69 42.68 29.83 36.98 29.83 36.98 38.24 42.68 38.24 42.68 36.38"/><polygon class="cls-1" points="46.44 40.25 44.5 40.25 44.5 48.66 49.27 48.66 49.27 46.73 46.44 46.73 46.44 40.25"/><polygon class="cls-1" points="68.15 38.28 70.16 38.28 70.16 31.81 71.95 31.81 71.95 29.87 66.33 29.87 66.33 31.81 68.15 31.81 68.15 38.28"/><polygon class="cls-1" points="45.85 36.46 44.5 36.46 44.5 38.28 49.19 38.28 49.19 36.46 47.79 36.46 47.79 31.69 49.15 31.69 49.15 29.87 44.46 29.87 44.46 31.69 45.85 31.69 45.85 36.46"/></g></g></svg>