<svg viewBox="0 0 486 461.35">
<g fill:none;stroke:#000;stroke-linecap:round;stroke-linejoin:round;stroke-width:30px>
<path d="M36.76,237V75.57A60.57,60.57,0,0,1,97.33,15H388.67a60.57,60.57,0,0,1,60.57,60.57V233"/>
<path d="M84.78,209.91V170.8a32.88,32.88,0,0,1,32.89-32.89h80.89a32.88,32.88,0,0,1,32.88,32.89v38.11"/>
<path d="M254.56,208.91V170.8a32.88,32.88,0,0,1,32.88-32.89h80.89a32.88,32.88,0,0,1,32.89,32.89v39.11"/>
<path d="M111.67,209.47H374.33A96.67,96.67,0,0,1,471,306.13v90.44a0,0,0,0,1,0,0H15a0,0,0,0,1,0,0V306.13A96.67,96.67,0,0,1,111.67,209.47Z"/>
<line x1="15" y1="340.58" x2="471" y2="340.58"/>
<path d="M63.46,400.36v21.76a24.23,24.23,0,0,1-24.23,24.23h0A24.23,24.23,0,0,1,15,422.12V400.36"/>
<path d="M471,400.36v21.76a24.23,24.23,0,0,1-24.23,24.23h0a24.23,24.23,0,0,1-24.23-24.23V400.36"/>
</g>
</svg>